<mxfile host="app.diagrams.net" modified="2024-06-21T02:24:22.953Z" agent="Mozilla/5.0 (Windows NT 10.0; Win64; x64) AppleWebKit/537.36 (KHTML, like Gecko) Chrome/123.0.0.0 Safari/537.36 Edg/123.0.0.0" version="24.6.0" etag="8qJRf8ZsG0vrY5xnnZB6" type="github">
  <diagram name="第 1 页" id="BErtyj0jReNzJ0Ui_AQF">
    <mxGraphModel>
      <root>
        <mxCell id="0" />
        <mxCell id="1" parent="0" />
      </root>
    </mxGraphModel>
  </diagram>
</mxfile>
